<svg id="svg" version="1.1" xmlns="http://www.w3.org/2000/svg" xmlns:xlink="http://www.w3.org/1999/xlink" width="400" height="210.12216404886564" viewBox="0, 0, 400,210.12216404886564"><g id="svgg"><path id="path0" d="M187.428 6.719 C 186.483 8.262,182.082 18.723,179.241 26.178 C 176.441 33.526,177.315 32.617,170.361 35.402 C 163.410 38.186,165.601 38.391,154.450 33.911 C 142.415 29.077,139.855 28.110,137.624 27.554 L 135.806 27.101 128.025 34.734 C 123.746 38.932,120.126 42.560,119.981 42.796 C 119.541 43.512,122.999 52.087,128.802 64.665 L 131.340 70.167 128.802 76.250 C 127.407 79.595,126.088 82.405,125.872 82.494 C 125.656 82.583,122.260 83.941,118.325 85.512 C 109.820 88.905,104.816 91.055,101.130 92.898 L 98.420 94.253 98.512 105.502 L 98.604 116.751 100.349 117.703 C 102.246 118.737,113.102 123.093,121.013 125.995 C 126.863 128.140,126.060 127.316,128.925 134.111 C 131.722 140.746,131.739 139.411,128.769 146.288 C 123.092 159.432,120.199 167.225,120.687 168.062 C 120.827 168.303,124.448 171.924,128.733 176.109 L 136.524 183.717 139.030 182.917 C 141.852 182.018,151.159 178.189,158.932 174.731 C 165.132 171.972,163.393 171.951,170.684 174.872 L 176.795 177.319 180.249 185.605 C 182.149 190.163,184.855 196.287,186.263 199.215 L 188.822 204.538 200.350 204.538 L 211.878 204.538 212.572 203.403 C 213.521 201.853,217.942 191.369,220.777 183.944 C 223.590 176.577,222.707 177.496,229.639 174.720 C 236.590 171.937,234.399 171.731,245.550 176.211 C 257.611 181.056,260.143 182.012,262.404 182.576 L 264.250 183.036 269.211 178.122 C 271.939 175.420,275.574 171.878,277.289 170.251 L 280.406 167.293 279.450 164.601 C 278.319 161.414,274.744 153.131,271.194 145.470 L 268.650 139.980 271.193 133.884 L 273.736 127.787 280.062 125.268 C 288.489 121.911,295.559 118.890,298.870 117.228 L 301.580 115.869 301.488 104.625 L 301.396 93.382 299.848 92.528 C 297.276 91.109,280.828 84.611,274.814 82.638 C 273.792 82.302,273.531 81.842,271.229 76.304 C 268.259 69.160,268.258 70.795,271.237 63.870 C 276.619 51.358,279.735 43.041,279.384 42.125 C 279.292 41.886,275.672 38.253,271.339 34.051 L 263.461 26.410 260.962 27.207 C 258.147 28.105,248.834 31.936,241.068 35.392 C 238.218 36.659,235.767 37.696,235.621 37.696 C 235.342 37.696,223.357 32.906,223.206 32.734 C 223.158 32.680,221.513 28.787,219.549 24.084 C 217.586 19.380,214.900 13.294,213.579 10.558 L 211.178 5.585 199.650 5.585 L 188.122 5.585 187.428 6.719 M208.703 74.334 C 244.864 84.751,237.616 136.649,200.000 136.649 C 173.834 136.649,158.668 109.052,172.954 87.435 C 180.322 76.286,195.795 70.616,208.703 74.334 " stroke="none" fill="#000000" fill-rule="evenodd"></path></g></svg>